<svg preserveAspectRatio="none" width="100%" height="100%" overflow="visible" style="display: block;" viewBox="0 0 26.51 30.71" fill="none" xmlns="http://www.w3.org/2000/svg">
<g id="Group">
<path id="Vector" d="M20.895 10.0151C17.15 10.1151 16.795 12.9001 13.255 12.8501C9.715 12.8501 9.31001 10.1701 5.61501 10.0151C2.47501 9.91507 0 12.4451 0 15.4801C0 18.5151 2.53001 20.9451 5.61501 20.9451C8.90501 20.9451 9.41 18.0101 13.255 17.9601C17.15 17.9601 17.605 20.9451 20.895 20.9451C24.185 20.9451 26.51 18.5151 26.51 15.4801C26.51 12.4451 23.98 9.91507 20.895 10.0151Z" fill="var(--fill-0, white)"/>
<path id="Vector_2" d="M13.255 10.4201C16.1324 10.4201 18.465 8.08746 18.465 5.21006C18.465 2.33266 16.1324 6.10352e-05 13.255 6.10352e-05C10.3776 6.10352e-05 8.04501 2.33266 8.04501 5.21006C8.04501 8.08746 10.3776 10.4201 13.255 10.4201Z" fill="var(--fill-0, white)"/>
<path id="Vector_3" d="M13.255 30.71C16.1324 30.71 18.465 28.3774 18.465 25.5C18.465 22.6226 16.1324 20.29 13.255 20.29C10.3776 20.29 8.04501 22.6226 8.04501 25.5C8.04501 28.3774 10.3776 30.71 13.255 30.71Z" fill="var(--fill-0, white)"/>
</g>
</svg>
