<svg preserveAspectRatio="none" width="100%" height="100%" overflow="visible" style="display: block;" viewBox="0 0 113.385 32.765" fill="none" xmlns="http://www.w3.org/2000/svg">
<g id="Group">
<path id="Vector" d="M76.675 26.3C75.43 26.03 74.45 25.76 74.45 24.955C74.45 24.51 74.76 24.205 75.245 24.035C75.525 23.955 75.845 23.91 76.205 23.91C77.275 23.91 78.225 24.39 78.94 24.93L80.145 23.255C79.255 22.54 77.92 21.91 76.225 21.91C75.645 21.91 75.09 21.985 74.585 22.13C73.095 22.525 72.02 23.535 72.02 25.16C72.02 27.31 74.065 27.935 75.76 28.38C77.005 28.65 77.985 28.92 77.985 29.725C77.985 30.235 77.53 30.6 76.855 30.775C76.61 30.83 76.335 30.855 76.045 30.855C74.8 30.855 73.675 30.35 72.965 29.545L71.75 31.245C72.73 32.05 74.155 32.765 76.025 32.765C76.65 32.765 77.235 32.685 77.765 32.53C79.335 32.11 80.41 31.05 80.41 29.42C80.41 27.27 78.36 26.645 76.67 26.285L76.675 26.3Z" fill="var(--fill-0, white)"/>
<path id="Vector_2" d="M69.915 18.16H67.575V32.505H69.915V18.16Z" fill="var(--fill-0, white)"/>
<path id="Vector_3" d="M44.98 19.05H41.77C41.36 19.05 40.97 19.115 40.595 19.235C39.98 19.415 39.425 19.74 38.97 20.175C38.26 19.48 37.3 19.05 36.245 19.05H32.925V21.23H36.755C37.38 21.23 37.825 21.675 37.825 22.305V32.415H40.075V22.27C40.075 21.76 40.37 21.375 40.81 21.245C40.88 21.23 40.955 21.225 41.03 21.225H44.975V19.045L44.98 19.05Z" fill="var(--fill-0, white)"/>
<path id="Vector_4" d="M60.015 21.995H60.005C59.735 21.995 58.315 21.995 56.98 22.89C56.535 23.16 56.355 23.335 56.09 23.52L55.555 23.88C55.12 24.145 54.515 24.315 53.815 24.325C53.12 24.315 52.515 24.145 52.075 23.88L51.54 23.52C51.27 23.34 51.095 23.16 50.65 22.89C49.315 21.995 47.89 21.995 47.625 21.995C44.685 21.995 42.285 24.415 42.285 27.365C42.285 30.315 44.69 32.735 47.625 32.735C47.985 32.735 49.405 32.645 50.565 31.75C51.01 31.48 51.19 31.305 51.46 31.12L51.995 30.76C52.44 30.49 53.065 30.315 53.775 30.315H53.87C54.58 30.315 55.205 30.495 55.65 30.76L56.185 31.12C56.455 31.3 56.63 31.48 57.08 31.75C58.24 32.645 59.66 32.735 60.02 32.735C62.96 32.735 65.36 30.315 65.36 27.365C65.36 24.415 62.955 21.995 60.02 21.995H60.015ZM60.005 30.49C60.005 30.49 59.025 30.49 58.225 29.955C57.78 29.685 57.6 29.51 57.33 29.325L56.795 28.965C55.995 28.425 54.925 28.16 53.855 28.16H53.76C52.69 28.16 51.62 28.43 50.82 28.965L50.285 29.325C50.015 29.505 49.84 29.685 49.39 29.955C48.59 30.49 47.61 30.49 47.61 30.49C45.83 30.49 44.4 29.06 44.4 27.27C44.4 25.48 45.825 24.05 47.61 24.05C47.61 24.05 48.59 24.05 49.39 24.59C49.905 24.97 50.015 25.035 50.285 25.22L50.82 25.58C51.62 26.115 52.6 26.385 53.76 26.385H53.855C55.015 26.385 55.995 26.115 56.795 25.58L57.33 25.22C57.605 25.04 57.755 24.945 58.225 24.59C59.065 23.955 60.005 24.05 60.005 24.05C61.785 24.05 63.215 25.48 63.215 27.27C63.215 29.06 61.79 30.49 60.005 30.49Z" fill="var(--fill-0, white)"/>
<path id="Vector_5" d="M63.11 4.81502V6.54502L62.565 6.18002C62.29 6.00002 62.11 5.81502 61.66 5.54502C60.305 4.64002 58.855 4.64001 58.585 4.64001C55.6 4.64001 53.16 7.09502 53.16 10.095C53.16 13.095 55.6 15.55 58.585 15.55H58.675C59.04 15.55 61.375 15.55 63.11 13.645C63.11 14.55 63.11 15.19 63.02 15.28H65.095C64.82 14.645 65.095 4.74002 65.095 4.83002H63.105L63.11 4.81502ZM63.11 11.54C61.845 11.725 60.305 13.36 58.675 13.27C56.865 13.27 55.415 11.815 55.415 10C55.415 8.18502 56.865 6.73001 58.675 6.73001C60.485 6.73001 62.02 8.46001 63.11 8.55001V11.55V11.54Z" fill="var(--fill-0, white)"/>
<path id="Vector_6" d="M27.115 9.99998C27.115 6.99498 24.675 4.53998 21.69 4.53998C19.79 4.53998 18.705 5.53998 17.8 6.26998V4.63498H15.54C15.54 4.63498 15.72 14.72 15.36 15.265H17.89C17.615 14.81 17.615 11.45 17.615 8.62998C18.745 7.68498 19.635 7.25498 19.635 7.25498C20.67 6.64998 21.595 6.71998 21.595 6.71998C23.405 6.71998 24.855 8.17498 24.855 9.98998C24.855 9.98998 25.035 14.99 24.855 15.26H27.205C27.025 14.26 27.115 9.98998 27.115 9.98998V9.99998Z" fill="var(--fill-0, white)"/>
<path id="Vector_7" d="M32.82 7.08502C33.815 6.63002 35.26 6.72002 36.98 8.17502C37.16 7.90002 38.52 6.18002 38.52 6.18002C38.52 6.18002 37.615 5.90502 36.98 5.54502C35.44 4.64002 33.635 4.36502 32.01 5.00002C30.29 5.63502 29.115 6.99502 28.665 8.72502C28.395 9.72502 28.485 10.63 28.575 10.995C28.94 12.815 30.115 14.355 31.835 15.085C32.555 15.36 33.28 15.54 34.005 15.54C35.09 15.54 36.175 15.175 37.08 14.635C37.49 14.375 37.72 14.265 38.015 14.085L38.34 13.905L36.985 11.91C36.985 11.91 36.62 12.635 35.9 13C34.905 13.545 33.73 13.725 32.735 13.275C31.65 12.82 30.925 11.91 30.745 10.73C30.745 10.545 30.655 10.005 30.835 9.36502C31.105 8.27502 31.83 7.46002 32.825 7.09502L32.82 7.08502Z" fill="var(--fill-0, white)"/>
<path id="Vector_8" d="M11.745 2.545C12.465 2.545 13.1 2.18 13.285 1.545L13.65 0C11.39 0.455 9.67 0 7.23 0C4.79 0 2.705 1.365 2.44 3.91C2.35 4.91 2.805 5.815 3.525 6.545C1.535 6.91 0 8.635 0 10.82C0 13.275 1.99 15.27 4.435 15.27H13.475V12.55C13.385 12.59 12.085 12.82 4.435 12.82C2.99 12.82 2.445 11.915 2.445 10.825C2.445 9.735 3.35 8.83 4.435 8.83L8.05 8.92C8.955 8.92 9.68 8.105 9.86 7.19C9.95 6.915 9.95 6.375 9.95 6.375H8.23C5.515 6.375 5.065 5.195 4.885 4.105C4.795 3.47 5.155 2.11 6.965 2.2V2.19C8.59 2.19 10.125 2.645 11.75 2.555L11.745 2.545Z" fill="var(--fill-0, white)"/>
<path id="Vector_9" d="M51.635 9.99499C51.635 6.99499 49.195 4.53999 46.21 4.53999C44.4 4.53999 43.315 5.44499 42.32 6.26999C42.23 2.35999 42.59 1.36499 42.59 1.36499H39.875C40.24 1.90999 40.33 14.27 39.785 15.27H42.59C42.41 14.81 42.41 11.72 42.32 8.62999C42.32 8.62999 43.085 7.76499 44.24 7.11999C45.215 6.67499 46.12 6.72499 46.12 6.72499C47.93 6.72499 49.38 8.17999 49.38 9.99499C49.38 9.99499 49.38 13.54 49.2 15.265H51.915C51.645 15.265 51.64 9.99499 51.64 9.99499H51.635Z" fill="var(--fill-0, white)"/>
<path id="Vector_10" d="M78.845 9.99498C78.845 6.99498 76.405 4.53998 73.42 4.53998C71.52 4.53998 70.435 5.53998 69.53 6.26998V4.63498H67.27C67.27 4.63498 67.45 14.72 67.09 15.265H69.62C69.345 14.81 69.345 11.45 69.345 8.62998C70.475 7.68498 71.365 7.25498 71.365 7.25498C72.4 6.64998 73.325 6.71998 73.325 6.71998C75.135 6.71998 76.585 8.16998 76.585 9.98498C76.585 9.98498 76.765 14.985 76.585 15.255H78.935C78.755 14.255 78.845 9.98498 78.845 9.98498V9.99498Z" fill="var(--fill-0, white)"/>
<path id="Vector_11" d="M93.855 4.53998C90.69 4.53998 88.34 6.89998 88.34 9.99498C88.34 13.09 90.78 15.54 94.13 15.54C96.12 15.54 97.835 14.725 98.83 13.36L97.11 11.725C96.745 12.815 95.48 13.455 94.125 13.455C92.405 13.455 91.14 12.455 90.78 11H99.19C99.255 10.62 99.27 10.315 99.27 10.045C99.27 6.86498 97.02 4.54498 93.855 4.54498V4.53998ZM93.855 9.08498H90.78C91.145 7.62998 92.32 6.62998 93.855 6.62998C95.39 6.62998 96.57 7.62998 96.93 9.08498H93.855Z" fill="var(--fill-0, white)"/>
<path id="Vector_12" d="M83.64 2.27502H81.2C81.38 2.91002 81.29 4.73002 81.29 4.73002H79.57V6.82002C80.475 6.63502 81.29 6.63503 81.29 6.63503V12.18C81.29 14.175 82.375 15.45 84.55 15.45C85.27 15.45 85.815 15.265 86.45 14.995V12.635C86.085 13.09 85.64 13.27 85.095 13.27C84.195 13.27 83.65 12.815 83.65 11.815V6.63503C83.65 6.63503 83.74 6.54502 86.455 6.82002V4.73002H83.56C83.56 4.73002 83.47 3.00002 83.65 2.27502H83.64Z" fill="var(--fill-0, white)"/>
<path id="Vector_13" d="M113.205 1.45001H110.945C111.125 2.81501 111.035 3.81001 111.035 6.54001L110.44 6.13501C110.17 5.95501 109.94 5.81001 109.495 5.54001C108.14 4.63501 106.69 4.63501 106.42 4.63501C103.435 4.63501 100.995 7.09001 100.995 10.09C100.995 13.09 103.435 15.545 106.42 15.545H106.51C106.875 15.545 108.23 15.455 109.495 14.64C110.04 14.285 110.13 14.185 110.4 14.005L110.945 13.64C110.945 14.545 110.855 15.095 110.765 15.275C111.035 15.275 113.115 15.275 113.385 15.365C113.02 14.185 112.93 2.82501 113.205 1.46001V1.45001ZM110.945 11.54C109.77 11.63 108.14 13.36 106.42 13.27C104.61 13.27 103.16 11.815 103.16 10C103.16 8.18501 104.61 6.73001 106.42 6.73001C108.23 6.73001 109.855 8.55001 110.945 8.55001V11.55V11.54Z" fill="var(--fill-0, white)"/>
</g>
</svg>
